# xmcd
#
# Track frame offsets: 
#        150
#        20208
#        40048
#        60454
#        79900
#        101161
#        121590
#        141366
#        163900
#        185804
#        206460
#        225507
#
# Disc length: 3401 seconds
#
# Revision: 0
# Processed by: cddbd v1.5.2PL0 Copyright (c) Steve Scherf et al.
# Submitted via: ExactAudioCopyFreeDBPlugin 1.0
#
DISCID=a40d470c
DTITLE=龚玥 - 永远民歌红
DYEAR=2018
DGENRE=Pop
TTITLE0=战士第二故乡
TTITLE1=我爱祖国的蓝天
TTITLE2=丰收歌
TTITLE3=请到天涯海角来
TTITLE4=梅花雪
TTITLE5=我爱祖国的大草原
TTITLE6=我们的田野
TTITLE7=边疆处处赛江南
TTITLE8=游子吟
TTITLE9=愿嫁汉家郎
TTITLE10=花非花
TTITLE11=二泉映月
EXTD=
EXTT0=
EXTT1=
EXTT2=
EXTT3=
EXTT4=
EXTT5=
EXTT6=
EXTT7=
EXTT8=
EXTT9=
EXTT10=
EXTT11=
PLAYORDER=
